HIERARCHY
ROOT root
{
	OFFSET	0	13.1	24.9
	CHANNELS 6  Xposition Yposition Zposition Xrotation Yrotation Zrotation
	JOINT spine_1
	{
		OFFSET	0	9.99999	0
		CHANNELS 3  Xrotation Yrotation Zrotation
		JOINT spine_2
		{
			OFFSET	0	112	-10
			CHANNELS 3  Xrotation Yrotation Zrotation
			JOINT spine_3
			{
				OFFSET	0	206.5	19.3
				CHANNELS 3  Xrotation Yrotation Zrotation
				JOINT spine_4
				{
					OFFSET	0	110.4	14.6
					CHANNELS 3  Xrotation Yrotation Zrotation
					JOINT neck_1
					{
						OFFSET	0	71.8	-50.3
						CHANNELS 3  Xrotation Yrotation Zrotation
						JOINT neck_2
						{
							OFFSET	0	86.2	-25.8
							CHANNELS 3  Xrotation Yrotation Zrotation
							JOINT head_ee
							{
								OFFSET	0	179.8	-8.7
								CHANNELS 3  Xrotation Yrotation Zrotation
								End Site
								{
									OFFSET	1	0	0
								}
							}
						}
					}
					JOINT left_clavicle
					{
						OFFSET	-43.2	22.4	-70.8
						CHANNELS 3  Xrotation Yrotation Zrotation
						JOINT left_shoulder
						{
							OFFSET	-93.9	-5.79999	48.7
							CHANNELS 3  Xrotation Yrotation Zrotation
							JOINT left_elbow
							{
								OFFSET	-291.4	-30.8	15.2
								CHANNELS 3  Xrotation Yrotation Zrotation
								JOINT left_lowarm_twist
								{
									OFFSET	-110.7	-3.89999	13.6
									CHANNELS 3  Xrotation Yrotation Zrotation
									JOINT left_hand
									{
										OFFSET	-110.7	-3.89999	13.6
										CHANNELS 3  Xrotation Yrotation Zrotation
										JOINT left_ee
										{
											OFFSET	-80.8	-5.10001	12.1
											CHANNELS 3  Xrotation Yrotation Zrotation
											End Site
											{
												OFFSET	1	0	0
											}
										}
									}
								}
							}
						}
					}
					JOINT right_clavicle
					{
						OFFSET	43.2	22.4	-70.8
						CHANNELS 3  Xrotation Yrotation Zrotation
						JOINT right_shoulder
						{
							OFFSET	93.9	-5.79999	48.7
							CHANNELS 3  Xrotation Yrotation Zrotation
							JOINT right_elbow
							{
								OFFSET	291.4	-30.8	15.2
								CHANNELS 3  Xrotation Yrotation Zrotation
								JOINT right_lowarm_twist
								{
									OFFSET	110.7	-3.89999	13.6
									CHANNELS 3  Xrotation Yrotation Zrotation
									JOINT right_hand
									{
										OFFSET	110.7	-3.89999	13.6
										CHANNELS 3  Xrotation Yrotation Zrotation
										JOINT right_ee
										{
											OFFSET	80.8	-5.10001	12.1
											CHANNELS 3  Xrotation Yrotation Zrotation
											End Site
											{
												OFFSET	1	0	0
											}
										}
									}
								}
							}
						}
					}
				}
			}
		}
	}
	JOINT left_hip
	{
		OFFSET	-82.8	-127.5	0.300001
		CHANNELS 3  Xrotation Yrotation Zrotation
		JOINT left_knee
		{
			OFFSET	-28.2	-396.7	2.2
			CHANNELS 3  Xrotation Yrotation Zrotation
			JOINT left_ankle
			{
				OFFSET	-11.7	-411.3	35.4
				CHANNELS 3  Xrotation Yrotation Zrotation
				JOINT left_toes
				{
					OFFSET	0	-60	-88.6
					CHANNELS 3  Xrotation Yrotation Zrotation
					JOINT left_foot_ee
					{
						OFFSET	-22.5	-16.5	-42.2
						CHANNELS 3  Xrotation Yrotation Zrotation
						End Site
						{
							OFFSET	1	0	0
						}
					}
				}
			}
		}
	}
	JOINT right_hip
	{
		OFFSET	82.8	-127.5	0.300001
		CHANNELS 3  Xrotation Yrotation Zrotation
		JOINT right_knee
		{
			OFFSET	28.2	-396.7	2.2
			CHANNELS 3  Xrotation Yrotation Zrotation
			JOINT right_ankle
			{
				OFFSET	11.7	-411.3	35.4
				CHANNELS 3  Xrotation Yrotation Zrotation
				JOINT right_toes
				{
					OFFSET	0	-60	-88.6
					CHANNELS 3  Xrotation Yrotation Zrotation
					JOINT right_foot_ee
					{
						OFFSET	22.5	-16.5	-42.2
						CHANNELS 3  Xrotation Yrotation Zrotation
						End Site
						{
							OFFSET	1	0	0
						}
					}
				}
			}
		}
	}
}
MOTION
Frames: 5
Frame Time: 0.02
2136.92 677.337 -620.624 163.264 -81.0658 168.41 -0.353856 0.166132 -1.09686 -0.353217 0.235587 -1.08407 -0.357481 0.464524 -1.00744 -0.358772 0.299598 -1.06815 -14.5118 4.8018 -0.0580171 -14.5803 9.20712 1.50133 -0.0 0.0 -0.0 5.30896 23.2592 10.0558 -33.7129 -13.4918 63.8373 0.255598 -7.21631 0.0161174 -79.1074 -7.70849 5.29087 5.91005 -16.3633 34.406 -0.0 0.0 -0.0 11.1797 27.7216 -21.3183 9.98566 11.9556 -57.6367 2.32067 48.9739 -1.05707 82.4275 4.12123 8.74064 2.70751 -29.8576 -27.1687 0.0 0.0 0.0 32.0361 25.23 -14.643 1.36859 -0.0587718 -0.201784 1.97479 -8.08018 -0.299793 -17.8197 0.0 0.0 -0.0 0.0 -0.0 -27.0396 24.9165 -2.64831 1.21221 0.0518123 0.178798 36.9524 -18.6887 4.71038 -34.8552 0.0 0.0 0.0 0.0 0.0 
2157.98 674.161 -625.995 164.582 -81.0378 170.292 -0.215202 0.12127 -1.32862 -0.214243 0.20556 -1.31821 -0.218644 0.482867 -1.2437 -0.220693 0.280405 -1.30434 -12.7391 5.01913 -0.50414 -12.7977 9.85767 0.995797 -0.0 0.0 -0.0 5.44608 22.6175 10.2807 -32.9993 -13.2322 64.4442 0.276636 -7.80323 0.0188669 -78.6725 -7.65319 5.29565 6.26038 -17.659 36.3602 -0.0 0.0 -0.0 11.6572 27.6186 -22.4105 7.48457 12.7088 -56.1342 2.23122 47.8564 -0.990152 81.4971 4.01224 8.6919 2.73795 -29.9772 -27.3765 0.0 0.0 0.0 31.6669 25.1719 -14.4362 0.995293 -0.0422624 -0.146883 1.35453 -8.47757 -0.206414 -17.5005 0.0 0.0 -0.0 0.0 -0.0 -27.7447 24.9496 -3.04376 1.32445 0.0568011 0.195298 36.6901 -19.781 4.70653 -34.6925 0.0 0.0 0.0 0.0 0.0 
2176.14 672.795 -629.901 164.563 -80.6679 170.475 -0.140415 0.0203843 -1.45736 -0.139241 0.113069 -1.45311 -0.141633 0.419499 -1.39584 -0.1443 0.193812 -1.44456 -11.0023 5.58721 0.306008 -11.0474 10.3562 1.78167 -0.0 0.0 -0.0 5.68517 23.0758 10.5983 -31.4567 -13.394 64.0543 0.314021 -8.84208 0.0242787 -76.8427 -7.42011 5.3111 6.34217 -18.4156 36.501 -0.0 0.0 -0.0 11.8124 27.1911 -22.8146 4.68041 13.8589 -55.3656 2.39036 49.8111 -1.10998 80.8103 3.93229 8.65478 2.7797 -30.021 -27.6418 0.0 0.0 0.0 31.7119 24.842 -15.0798 -3.29183 0.121469 0.490519 0.490045 -9.68487 -0.0753499 -16.8327 0.0 0.0 -0.0 0.0 -0.0 -29.3398 24.9087 -2.44075 2.73795 0.122393 0.402252 31.8599 -20.7116 4.22242 -34.204 0.0 0.0 0.0 0.0 0.0 
2198.9 675.273 -635.05 162.803 -80.3118 168.765 -0.212441 -0.0558525 -1.29548 -0.211507 0.0266886 -1.29641 -0.211664 0.303278 -1.26073 -0.213869 0.100381 -1.2928 -9.72049 5.48847 0.445697 -9.74876 10.0176 1.78053 -0.0 0.0 -0.0 5.99268 23.694 10.9954 -30.3512 -13.3151 62.9611 0.339237 -9.5395 0.0283062 -76.4969 -7.376 5.31318 6.09762 -16.4878 35.8282 -0.0 0.0 -0.0 11.4569 25.5905 -22.19 1.93735 14.2259 -56.1685 2.45785 50.5951 -1.16183 80.3551 3.87955 8.62966 2.98474 -29.9645 -28.9128 0.0 0.0 0.0 31.3814 24.7737 -15.4573 -6.16873 0.204388 0.9242 3.19512 -8.15656 -0.483529 -16.7555 0.0 0.0 -0.0 0.0 -0.0 -29.9479 24.6046 -2.05969 1.41752 0.0609622 0.208973 31.262 -24.5761 4.24106 -35.0863 0.0 0.0 0.0 0.0 0.0 
2223.22 682.132 -639.879 162.431 -79.7821 168.949 -0.17274 -0.231777 -1.55431 -0.171406 -0.132416 -1.5659 -0.167021 0.204234 -1.55816 -0.170406 -0.0443805 -1.57086 -6.68371 5.2577 0.0626813 -6.67991 9.70658 1.10317 -0.0 0.0 -0.0 6.26957 23.534 11.3981 -28.6725 -13.6612 63.0504 0.358532 -10.0713 0.0315923 -75.0611 -7.19269 5.31893 6.09372 -16.6479 35.6916 -0.0 0.0 -0.0 11.4165 24.3026 -22.2323 -0.514245 14.1139 -56.4274 2.35032 49.3336 -1.0795 79.0823 3.73315 8.55719 3.03872 -29.4838 -29.1824 0.0 0.0 0.0 30.6897 24.4939 -16.1559 -8.49626 0.255466 1.2777 5.57189 -8.34569 -0.83781 -17.1839 0.0 0.0 -0.0 0.0 -0.0 -30.8748 24.6935 -1.46051 1.29401 0.0554448 0.190825 28.8103 -24.7961 3.96391 -35.924 0.0 0.0 0.0 0.0 0.0 
